<mxfile host="Electron" modified="2024-04-28T12:01:42.853Z" agent="Mozilla/5.0 (Macintosh; Intel Mac OS X 10_15_7) AppleWebKit/537.36 (KHTML, like Gecko) draw.io/24.2.5 Chrome/120.0.6099.109 Electron/28.1.0 Safari/537.36" etag="tJlUnlrd6w9z44iVmdeK" version="24.2.5" type="device">
  <diagram name="第 1 页" id="YgYoEAp60YLUj6TMqFZ_">
    <mxGraphModel dx="1178" dy="803" grid="1" gridSize="10" guides="1" tooltips="1" connect="1" arrows="1" fold="1" page="1" pageScale="1" pageWidth="827" pageHeight="1169" math="0" shadow="0">
      <root>
        <mxCell id="0" />
        <mxCell id="1" parent="0" />
        <mxCell id="jmgFgDBc3X02vkByfrqp-20" style="edgeStyle=orthogonalEdgeStyle;rounded=0;orthogonalLoop=1;jettySize=auto;html=1;exitX=0;exitY=0.5;exitDx=0;exitDy=0;entryX=0.5;entryY=0;entryDx=0;entryDy=0;curved=1;" edge="1" parent="1" source="jmgFgDBc3X02vkByfrqp-1" target="jmgFgDBc3X02vkByfrqp-4">
          <mxGeometry relative="1" as="geometry" />
        </mxCell>
        <mxCell id="jmgFgDBc3X02vkByfrqp-1" value="A" style="ellipse;whiteSpace=wrap;html=1;aspect=fixed;fontSize=25;" vertex="1" parent="1">
          <mxGeometry x="360" y="120" width="80" height="80" as="geometry" />
        </mxCell>
        <mxCell id="jmgFgDBc3X02vkByfrqp-22" style="edgeStyle=orthogonalEdgeStyle;rounded=0;orthogonalLoop=1;jettySize=auto;html=1;entryX=1;entryY=0.5;entryDx=0;entryDy=0;curved=1;" edge="1" parent="1" source="jmgFgDBc3X02vkByfrqp-2" target="jmgFgDBc3X02vkByfrqp-1">
          <mxGeometry relative="1" as="geometry">
            <mxPoint x="600" y="150" as="targetPoint" />
            <Array as="points">
              <mxPoint x="600" y="160" />
            </Array>
          </mxGeometry>
        </mxCell>
        <mxCell id="jmgFgDBc3X02vkByfrqp-24" style="edgeStyle=orthogonalEdgeStyle;rounded=0;orthogonalLoop=1;jettySize=auto;html=1;entryX=0.5;entryY=0;entryDx=0;entryDy=0;curved=1;exitX=0.025;exitY=0.638;exitDx=0;exitDy=0;exitPerimeter=0;" edge="1" parent="1" source="jmgFgDBc3X02vkByfrqp-2" target="jmgFgDBc3X02vkByfrqp-3">
          <mxGeometry relative="1" as="geometry" />
        </mxCell>
        <mxCell id="jmgFgDBc3X02vkByfrqp-2" value="B" style="ellipse;whiteSpace=wrap;html=1;aspect=fixed;fontSize=25;" vertex="1" parent="1">
          <mxGeometry x="560" y="280" width="80" height="80" as="geometry" />
        </mxCell>
        <mxCell id="jmgFgDBc3X02vkByfrqp-25" style="edgeStyle=orthogonalEdgeStyle;rounded=0;orthogonalLoop=1;jettySize=auto;html=1;exitX=1;exitY=0.5;exitDx=0;exitDy=0;entryX=0.5;entryY=1;entryDx=0;entryDy=0;curved=1;" edge="1" parent="1" source="jmgFgDBc3X02vkByfrqp-3" target="jmgFgDBc3X02vkByfrqp-2">
          <mxGeometry relative="1" as="geometry" />
        </mxCell>
        <mxCell id="jmgFgDBc3X02vkByfrqp-3" value="C" style="ellipse;whiteSpace=wrap;html=1;aspect=fixed;fontSize=25;" vertex="1" parent="1">
          <mxGeometry x="360" y="440" width="80" height="80" as="geometry" />
        </mxCell>
        <mxCell id="jmgFgDBc3X02vkByfrqp-28" style="edgeStyle=orthogonalEdgeStyle;rounded=0;orthogonalLoop=1;jettySize=auto;html=1;exitX=1;exitY=0.5;exitDx=0;exitDy=0;entryX=0;entryY=0.5;entryDx=0;entryDy=0;" edge="1" parent="1" source="jmgFgDBc3X02vkByfrqp-4" target="jmgFgDBc3X02vkByfrqp-2">
          <mxGeometry relative="1" as="geometry" />
        </mxCell>
        <mxCell id="jmgFgDBc3X02vkByfrqp-4" value="D" style="ellipse;whiteSpace=wrap;html=1;aspect=fixed;fontSize=25;" vertex="1" parent="1">
          <mxGeometry x="160" y="280" width="80" height="80" as="geometry" />
        </mxCell>
        <mxCell id="jmgFgDBc3X02vkByfrqp-27" value="" style="endArrow=classic;html=1;rounded=0;exitX=1;exitY=0;exitDx=0;exitDy=0;entryX=0;entryY=1;entryDx=0;entryDy=0;" edge="1" parent="1" source="jmgFgDBc3X02vkByfrqp-3" target="jmgFgDBc3X02vkByfrqp-2">
          <mxGeometry width="50" height="50" relative="1" as="geometry">
            <mxPoint x="460" y="440" as="sourcePoint" />
            <mxPoint x="510" y="390" as="targetPoint" />
          </mxGeometry>
        </mxCell>
        <mxCell id="jmgFgDBc3X02vkByfrqp-30" value="" style="endArrow=classic;html=1;rounded=0;exitX=1;exitY=1;exitDx=0;exitDy=0;entryX=0;entryY=0;entryDx=0;entryDy=0;" edge="1" parent="1" source="jmgFgDBc3X02vkByfrqp-1" target="jmgFgDBc3X02vkByfrqp-2">
          <mxGeometry width="50" height="50" relative="1" as="geometry">
            <mxPoint x="438" y="462" as="sourcePoint" />
            <mxPoint x="582" y="358" as="targetPoint" />
          </mxGeometry>
        </mxCell>
        <mxCell id="jmgFgDBc3X02vkByfrqp-32" value="" style="endArrow=classic;html=1;rounded=0;exitX=1;exitY=0.325;exitDx=0;exitDy=0;exitPerimeter=0;entryX=0.038;entryY=0.375;entryDx=0;entryDy=0;entryPerimeter=0;" edge="1" parent="1" source="jmgFgDBc3X02vkByfrqp-4" target="jmgFgDBc3X02vkByfrqp-2">
          <mxGeometry width="50" height="50" relative="1" as="geometry">
            <mxPoint x="390" y="440" as="sourcePoint" />
            <mxPoint x="440" y="390" as="targetPoint" />
          </mxGeometry>
        </mxCell>
        <mxCell id="jmgFgDBc3X02vkByfrqp-33" value="0/1" style="text;strokeColor=none;align=center;fillColor=none;html=1;verticalAlign=middle;whiteSpace=wrap;rounded=0;" vertex="1" parent="1">
          <mxGeometry x="300" y="280" width="60" height="30" as="geometry" />
        </mxCell>
        <mxCell id="jmgFgDBc3X02vkByfrqp-34" value="1/1" style="text;strokeColor=none;align=center;fillColor=none;html=1;verticalAlign=middle;whiteSpace=wrap;rounded=0;" vertex="1" parent="1">
          <mxGeometry x="310" y="320" width="60" height="30" as="geometry" />
        </mxCell>
        <mxCell id="jmgFgDBc3X02vkByfrqp-35" value="1/1" style="text;strokeColor=none;align=center;fillColor=none;html=1;verticalAlign=middle;whiteSpace=wrap;rounded=0;" vertex="1" parent="1">
          <mxGeometry x="410" y="330" width="60" height="30" as="geometry" />
        </mxCell>
        <mxCell id="jmgFgDBc3X02vkByfrqp-36" value="0/0" style="text;strokeColor=none;align=center;fillColor=none;html=1;verticalAlign=middle;whiteSpace=wrap;rounded=0;" vertex="1" parent="1">
          <mxGeometry x="470" y="210" width="60" height="30" as="geometry" />
        </mxCell>
        <mxCell id="jmgFgDBc3X02vkByfrqp-37" value="0/1" style="text;strokeColor=none;align=center;fillColor=none;html=1;verticalAlign=middle;whiteSpace=wrap;rounded=0;" vertex="1" parent="1">
          <mxGeometry x="540" y="160" width="60" height="30" as="geometry" />
        </mxCell>
        <mxCell id="jmgFgDBc3X02vkByfrqp-38" value="0/1" style="text;strokeColor=none;align=center;fillColor=none;html=1;verticalAlign=middle;whiteSpace=wrap;rounded=0;" vertex="1" parent="1">
          <mxGeometry x="440" y="390" width="60" height="30" as="geometry" />
        </mxCell>
        <mxCell id="jmgFgDBc3X02vkByfrqp-40" value="1/1" style="text;strokeColor=none;align=center;fillColor=none;html=1;verticalAlign=middle;whiteSpace=wrap;rounded=0;" vertex="1" parent="1">
          <mxGeometry x="500" y="440" width="60" height="30" as="geometry" />
        </mxCell>
        <mxCell id="jmgFgDBc3X02vkByfrqp-41" value="1/0" style="text;strokeColor=none;align=center;fillColor=none;html=1;verticalAlign=middle;whiteSpace=wrap;rounded=0;" vertex="1" parent="1">
          <mxGeometry x="200" y="160" width="60" height="30" as="geometry" />
        </mxCell>
      </root>
    </mxGraphModel>
  </diagram>
</mxfile>
